{
	"asset":{
		"generator":"Khronos glTF Blender I/O v5.1.20",
		"version":"2.0"
	},
	"extensionsUsed":[
		"KHR_materials_specular"
	],
	"scene":0,
	"scenes":[
		{
			"extras":{
				"rbx_anim_settings":{}
			},
			"name":"Scene",
			"nodes":[
				0,
				8,
				9,
				10,
				11,
				12,
				13,
				14
			]
		}
	],
	"nodes":[
		{
			"camera":0,
			"name":"Camera",
			"rotation":[
				-0.7071068286895752,
				0,
				0,
				0.7071068286895752
			],
			"translation":[
				0,
				10,
				0
			]
		},
		{
			"extras":{
				"transform":[
					[
						1.0,
						0.0,
						0.0,
						1.5
					],
					[
						0.0,
						1.0,
						0.0,
						3.0
					],
					[
						0.0,
						0.0,
						1.0,
						0.0
					],
					[
						0.0,
						0.0,
						0.0,
						1.0
					]
				],
				"rbx_joint_type":"Motor6D",
				"transform0":[
					[
						0.0,
						0.0,
						1.0,
						1.0
					],
					[
						0.0,
						1.0,
						0.0,
						0.5
					],
					[
						-1.0,
						0.0,
						0.0,
						0.0
					],
					[
						0.0,
						0.0,
						0.0,
						1.0
					]
				],
				"transform1":[
					[
						0.0,
						0.0,
						1.0,
						-0.5
					],
					[
						0.0,
						1.0,
						0.0,
						0.5
					],
					[
						-1.0,
						0.0,
						0.0,
						0.0
					],
					[
						0.0,
						0.0,
						0.0,
						1.0
					]
				],
				"is_transformable":true,
				"nicetransform":[
					[
						1.4901161193847656e-08,
						0.0,
						-0.9999999403953552,
						0.0
					],
					[
						-0.7071067690849304,
						-0.7071067094802856,
						0.0,
						0.0
					],
					[
						-0.7071067094802856,
						0.7071067094802856,
						-2.9802322387695312e-08,
						0.0
					],
					[
						0.0,
						0.0,
						0.0,
						1.0
					]
				]
			},
			"name":"Right Arm",
			"rotation":[
				-0.6532815098762512,
				0.27059805393218994,
				0.2705981135368347,
				0.6532815098762512
			],
			"scale":[
				1,
				1,
				0.9999999403953552
			],
			"translation":[
				-0.9999999403953552,
				0,
				0.5000000596046448
			]
		},
		{
			"extras":{
				"transform":[
					[
						1.0,
						0.0,
						0.0,
						-1.5
					],
					[
						0.0,
						1.0,
						0.0,
						3.0
					],
					[
						0.0,
						0.0,
						1.0,
						0.0
					],
					[
						0.0,
						0.0,
						0.0,
						1.0
					]
				],
				"rbx_joint_type":"Motor6D",
				"transform0":[
					[
						0.0,
						0.0,
						-1.0,
						-1.0
					],
					[
						0.0,
						1.0,
						0.0,
						0.5
					],
					[
						1.0,
						0.0,
						0.0,
						0.0
					],
					[
						0.0,
						0.0,
						0.0,
						1.0
					]
				],
				"transform1":[
					[
						0.0,
						0.0,
						-1.0,
						0.5
					],
					[
						0.0,
						1.0,
						0.0,
						0.5
					],
					[
						1.0,
						0.0,
						0.0,
						0.0
					],
					[
						0.0,
						0.0,
						0.0,
						1.0
					]
				],
				"is_transformable":true,
				"nicetransform":[
					[
						1.4901161193847656e-08,
						0.0,
						0.9999999403953552,
						0.0
					],
					[
						0.7071067690849304,
						-0.7071067094802856,
						0.0,
						0.0
					],
					[
						0.7071067094802856,
						0.7071067094802856,
						-2.9802322387695312e-08,
						0.0
					],
					[
						0.0,
						0.0,
						0.0,
						1.0
					]
				]
			},
			"name":"Left Arm",
			"rotation":[
				-0.6532815098762512,
				-0.27059808373451233,
				-0.27059802412986755,
				0.6532815098762512
			],
			"scale":[
				0.9999998211860657,
				0.9999999403953552,
				0.9999998807907104
			],
			"translation":[
				1,
				0,
				0.49999991059303284
			]
		},
		{
			"extras":{
				"transform":[
					[
						1.0,
						0.0,
						0.0,
						0.5
					],
					[
						0.0,
						1.0,
						0.0,
						1.0
					],
					[
						0.0,
						0.0,
						1.0,
						0.0
					],
					[
						0.0,
						0.0,
						0.0,
						1.0
					]
				],
				"rbx_joint_type":"Motor6D",
				"transform0":[
					[
						0.0,
						0.0,
						1.0,
						1.0
					],
					[
						0.0,
						1.0,
						0.0,
						-1.0
					],
					[
						-1.0,
						0.0,
						0.0,
						0.0
					],
					[
						0.0,
						0.0,
						0.0,
						1.0
					]
				],
				"transform1":[
					[
						0.0,
						0.0,
						1.0,
						0.5
					],
					[
						0.0,
						1.0,
						0.0,
						1.0
					],
					[
						-1.0,
						0.0,
						0.0,
						0.0
					],
					[
						0.0,
						0.0,
						0.0,
						1.0
					]
				],
				"is_transformable":true,
				"nicetransform":[
					[
						-9.685754776000977e-08,
						0.0,
						-1.0,
						0.0
					],
					[
						0.4472135901451111,
						-0.8944271802902222,
						7.450580596923828e-09,
						0.0
					],
					[
						-0.8944271802902222,
						-0.44721361994743347,
						1.1920928955078125e-07,
						0.0
					],
					[
						0.0,
						0.0,
						0.0,
						1.0
					]
				]
			},
			"name":"Right Leg",
			"rotation":[
				-0.6881909370422363,
				-0.1624598652124405,
				-0.16245973110198975,
				0.6881909966468811
			],
			"translation":[
				-1.0000001192092896,
				0,
				-1
			]
		},
		{
			"extras":{
				"transform":[
					[
						1.0,
						0.0,
						0.0,
						-0.5
					],
					[
						0.0,
						1.0,
						0.0,
						1.0
					],
					[
						0.0,
						0.0,
						1.0,
						0.0
					],
					[
						0.0,
						0.0,
						0.0,
						1.0
					]
				],
				"rbx_joint_type":"Motor6D",
				"transform0":[
					[
						0.0,
						0.0,
						-1.0,
						-1.0
					],
					[
						0.0,
						1.0,
						0.0,
						-1.0
					],
					[
						1.0,
						0.0,
						0.0,
						0.0
					],
					[
						0.0,
						0.0,
						0.0,
						1.0
					]
				],
				"transform1":[
					[
						0.0,
						0.0,
						-1.0,
						-0.5
					],
					[
						0.0,
						1.0,
						0.0,
						1.0
					],
					[
						1.0,
						0.0,
						0.0,
						0.0
					],
					[
						0.0,
						0.0,
						0.0,
						1.0
					]
				],
				"is_transformable":true,
				"nicetransform":[
					[
						-9.685754776000977e-08,
						0.0,
						1.0,
						0.0
					],
					[
						-0.4472135901451111,
						-0.8944271802902222,
						7.450580596923828e-09,
						0.0
					],
					[
						0.8944271802902222,
						-0.44721361994743347,
						1.1920928955078125e-07,
						0.0
					],
					[
						0.0,
						0.0,
						0.0,
						1.0
					]
				]
			},
			"name":"Left Leg",
			"rotation":[
				-0.6881909370422363,
				0.16245993971824646,
				0.1624598205089569,
				0.6881909370422363
			],
			"translation":[
				0.9999999403953552,
				0,
				-1.0000001192092896
			]
		},
		{
			"extras":{
				"transform":[
					[
						1.0,
						0.0,
						0.0,
						0.0
					],
					[
						0.0,
						1.0,
						0.0,
						4.5
					],
					[
						0.0,
						0.0,
						1.0,
						0.0
					],
					[
						0.0,
						0.0,
						0.0,
						1.0
					]
				],
				"rbx_joint_type":"Motor6D",
				"transform0":[
					[
						-1.0,
						0.0,
						0.0,
						0.0
					],
					[
						0.0,
						0.0,
						1.0,
						1.0
					],
					[
						0.0,
						1.0,
						0.0,
						0.0
					],
					[
						0.0,
						0.0,
						0.0,
						1.0
					]
				],
				"transform1":[
					[
						-1.0,
						0.0,
						0.0,
						0.0
					],
					[
						0.0,
						0.0,
						1.0,
						-0.5
					],
					[
						0.0,
						1.0,
						0.0,
						0.0
					],
					[
						0.0,
						0.0,
						0.0,
						1.0
					]
				],
				"is_transformable":true,
				"nicetransform":[
					[
						-1.0,
						0.0,
						0.0,
						0.0
					],
					[
						0.0,
						0.0,
						1.0,
						0.0
					],
					[
						0.0,
						1.0,
						0.0,
						0.0
					],
					[
						0.0,
						0.0,
						0.0,
						1.0
					]
				]
			},
			"name":"Head",
			"rotation":[
				-8.432159859239619e-09,
				-0.7071067690849304,
				-0.7071067690849304,
				5.338507591545749e-08
			],
			"translation":[
				8.742276236262114e-08,
				0,
				1
			]
		},
		{
			"children":[
				1,
				2,
				3,
				4,
				5
			],
			"extras":{
				"transform":[
					[
						1.0,
						0.0,
						0.0,
						0.0
					],
					[
						0.0,
						1.0,
						0.0,
						3.0
					],
					[
						0.0,
						0.0,
						1.0,
						0.0
					],
					[
						0.0,
						0.0,
						0.0,
						1.0
					]
				],
				"rbx_joint_type":"Motor6D",
				"transform0":[
					[
						-1.0,
						0.0,
						0.0,
						0.0
					],
					[
						0.0,
						0.0,
						1.0,
						0.0
					],
					[
						0.0,
						1.0,
						0.0,
						0.0
					],
					[
						0.0,
						0.0,
						0.0,
						1.0
					]
				],
				"transform1":[
					[
						-1.0,
						0.0,
						0.0,
						0.0
					],
					[
						0.0,
						0.0,
						1.0,
						0.0
					],
					[
						0.0,
						1.0,
						0.0,
						0.0
					],
					[
						0.0,
						0.0,
						0.0,
						1.0
					]
				],
				"is_transformable":true,
				"nicetransform":[
					[
						1.0,
						0.0,
						0.0,
						0.0
					],
					[
						0.0,
						1.0,
						0.0,
						0.0
					],
					[
						0.0,
						0.0,
						1.0,
						0.0
					],
					[
						0.0,
						0.0,
						0.0,
						1.0
					]
				]
			},
			"name":"Torso",
			"rotation":[
				3.0908619663705394e-08,
				0.7071067690849304,
				0.7071067690849304,
				3.0908619663705394e-08
			]
		},
		{
			"children":[
				6
			],
			"extras":{
				"transform":[
					[
						1.0,
						0.0,
						0.0,
						0.0
					],
					[
						0.0,
						1.0,
						0.0,
						3.0
					],
					[
						0.0,
						0.0,
						1.0,
						0.0
					],
					[
						0.0,
						0.0,
						0.0,
						1.0
					]
				],
				"rbx_joint_type":"Motor6D",
				"transform0":[
					[
						1.0,
						0.0,
						0.0,
						0.0
					],
					[
						0.0,
						1.0,
						0.0,
						0.0
					],
					[
						0.0,
						0.0,
						1.0,
						0.0
					],
					[
						0.0,
						0.0,
						0.0,
						1.0
					]
				],
				"transform1":[
					[
						1.0,
						0.0,
						0.0,
						0.0
					],
					[
						0.0,
						1.0,
						0.0,
						0.0
					],
					[
						0.0,
						0.0,
						1.0,
						0.0
					],
					[
						0.0,
						0.0,
						0.0,
						1.0
					]
				],
				"nicetransform":[
					[
						1.0,
						0.0,
						0.0,
						0.0
					],
					[
						0.0,
						1.0,
						0.0,
						0.0
					],
					[
						0.0,
						0.0,
						1.0,
						0.0
					],
					[
						0.0,
						0.0,
						0.0,
						1.0
					]
				]
			},
			"name":"HumanoidRootPart",
			"translation":[
				0,
				3,
				0
			]
		},
		{
			"children":[
				7
			],
			"name":"Armature",
			"scale":[
				0.20000000298023224,
				0.20000000298023224,
				0.20000000298023224
			]
		},
		{
			"mesh":0,
			"name":"Right Leg",
			"rotation":[
				0.7071068286895752,
				0,
				0,
				0.7071068286895752
			],
			"scale":[
				0.20000001788139343,
				0.20000000298023224,
				0.20000000298023224
			]
		},
		{
			"mesh":1,
			"name":"Left Leg",
			"rotation":[
				0.7071068286895752,
				0,
				0,
				0.7071068286895752
			],
			"scale":[
				0.20000001788139343,
				0.20000000298023224,
				0.20000001788139343
			]
		},
		{
			"mesh":2,
			"name":"Right Arm",
			"rotation":[
				0.7071068286895752,
				0,
				0,
				0.7071068286895752
			],
			"scale":[
				0.19999998807907104,
				0.19999998807907104,
				0.20000000298023224
			]
		},
		{
			"mesh":3,
			"name":"Left Arm",
			"rotation":[
				0.7071068286895752,
				0,
				0,
				0.7071068286895752
			],
			"scale":[
				0.20000001788139343,
				0.20000000298023224,
				0.20000001788139343
			]
		},
		{
			"mesh":4,
			"name":"Torso",
			"rotation":[
				0.7071068286895752,
				0,
				0,
				0.7071068286895752
			],
			"scale":[
				0.20000000298023224,
				0.20000000298023224,
				0.20000000298023224
			]
		},
		{
			"mesh":5,
			"name":"Head",
			"rotation":[
				0.7071068286895752,
				0,
				0,
				0.7071068286895752
			],
			"scale":[
				0.20000000298023224,
				0.20000000298023224,
				0.20000000298023224
			]
		}
	],
	"cameras":[
		{
			"name":"Camera",
			"perspective":{
				"aspectRatio":1,
				"yfov":0.6911112070083618,
				"zfar":100,
				"znear":0.10000000149011612
			},
			"type":"perspective"
		}
	],
	"materials":[
		{
			"alphaMode":"BLEND",
			"doubleSided":true,
			"extensions":{
				"KHR_materials_specular":{
					"specularFactor":0.125490203499794
				}
			},
			"name":"AnimationDummy1Mtl.003",
			"pbrMetallicRoughness":{
				"metallicFactor":0
			}
		}
	],
	"meshes":[
		{
			"name":"AnimationDummy1.003",
			"primitives":[
				{
					"attributes":{
						"POSITION":0,
						"NORMAL":1,
						"TEXCOORD_0":2,
						"TANGENT":3
					},
					"indices":4,
					"material":0
				}
			]
		},
		{
			"name":"AnimationDummy2.003",
			"primitives":[
				{
					"attributes":{
						"POSITION":5,
						"NORMAL":6,
						"TEXCOORD_0":7,
						"TANGENT":8
					},
					"indices":9,
					"material":0
				}
			]
		},
		{
			"name":"AnimationDummy3.003",
			"primitives":[
				{
					"attributes":{
						"POSITION":10,
						"NORMAL":11,
						"TEXCOORD_0":12,
						"TANGENT":13
					},
					"indices":4,
					"material":0
				}
			]
		},
		{
			"name":"AnimationDummy4.003",
			"primitives":[
				{
					"attributes":{
						"POSITION":14,
						"NORMAL":15,
						"TEXCOORD_0":16,
						"TANGENT":17
					},
					"indices":9,
					"material":0
				}
			]
		},
		{
			"name":"AnimationDummy5.003",
			"primitives":[
				{
					"attributes":{
						"POSITION":18,
						"NORMAL":19,
						"TEXCOORD_0":20,
						"TANGENT":21
					},
					"indices":9,
					"material":0
				}
			]
		},
		{
			"name":"AnimationDummy6.003",
			"primitives":[
				{
					"attributes":{
						"POSITION":22,
						"NORMAL":23,
						"TEXCOORD_0":24,
						"TANGENT":25
					},
					"indices":26,
					"material":0
				}
			]
		}
	],
	"skins":[
		{
			"inverseBindMatrices":27,
			"joints":[
				7,
				6,
				1,
				2,
				3,
				4,
				5
			],
			"name":"Armature"
		}
	],
	"accessors":[
		{
			"bufferView":0,
			"componentType":5126,
			"count":42,
			"max":[
				1,
				0.5,
				4.768369876728684e-07
			],
			"min":[
				0,
				-0.5,
				-2
			],
			"type":"VEC3"
		},
		{
			"bufferView":1,
			"componentType":5126,
			"count":42,
			"type":"VEC3"
		},
		{
			"bufferView":2,
			"componentType":5126,
			"count":42,
			"type":"VEC2"
		},
		{
			"bufferView":3,
			"componentType":5126,
			"count":42,
			"type":"VEC4"
		},
		{
			"bufferView":4,
			"componentType":5123,
			"count":132,
			"type":"SCALAR"
		},
		{
			"bufferView":5,
			"componentType":5126,
			"count":42,
			"max":[
				0,
				0.5,
				4.768369876728684e-07
			],
			"min":[
				-1,
				-0.5,
				-2
			],
			"type":"VEC3"
		},
		{
			"bufferView":6,
			"componentType":5126,
			"count":42,
			"type":"VEC3"
		},
		{
			"bufferView":7,
			"componentType":5126,
			"count":42,
			"type":"VEC2"
		},
		{
			"bufferView":8,
			"componentType":5126,
			"count":42,
			"type":"VEC4"
		},
		{
			"bufferView":9,
			"componentType":5123,
			"count":132,
			"type":"SCALAR"
		},
		{
			"bufferView":10,
			"componentType":5126,
			"count":42,
			"max":[
				2,
				0.5,
				-2
			],
			"min":[
				1,
				-0.5,
				-4
			],
			"type":"VEC3"
		},
		{
			"bufferView":11,
			"componentType":5126,
			"count":42,
			"type":"VEC3"
		},
		{
			"bufferView":12,
			"componentType":5126,
			"count":42,
			"type":"VEC2"
		},
		{
			"bufferView":13,
			"componentType":5126,
			"count":42,
			"type":"VEC4"
		},
		{
			"bufferView":14,
			"componentType":5126,
			"count":42,
			"max":[
				-1,
				0.5,
				-2
			],
			"min":[
				-2,
				-0.5,
				-4
			],
			"type":"VEC3"
		},
		{
			"bufferView":15,
			"componentType":5126,
			"count":42,
			"type":"VEC3"
		},
		{
			"bufferView":16,
			"componentType":5126,
			"count":42,
			"type":"VEC2"
		},
		{
			"bufferView":17,
			"componentType":5126,
			"count":42,
			"type":"VEC4"
		},
		{
			"bufferView":18,
			"componentType":5126,
			"count":42,
			"max":[
				1,
				0.5,
				-2
			],
			"min":[
				-1,
				-0.5,
				-4
			],
			"type":"VEC3"
		},
		{
			"bufferView":19,
			"componentType":5126,
			"count":42,
			"type":"VEC3"
		},
		{
			"bufferView":20,
			"componentType":5126,
			"count":42,
			"type":"VEC2"
		},
		{
			"bufferView":21,
			"componentType":5126,
			"count":42,
			"type":"VEC4"
		},
		{
			"bufferView":22,
			"componentType":5126,
			"count":517,
			"max":[
				0.5989840030670166,
				0.5989840030670166,
				-3.8987300395965576
			],
			"min":[
				-0.5989840030670166,
				-0.5989840030670166,
				-5.1012701988220215
			],
			"type":"VEC3"
		},
		{
			"bufferView":23,
			"componentType":5126,
			"count":517,
			"type":"VEC3"
		},
		{
			"bufferView":24,
			"componentType":5126,
			"count":517,
			"type":"VEC2"
		},
		{
			"bufferView":25,
			"componentType":5126,
			"count":517,
			"type":"VEC4"
		},
		{
			"bufferView":26,
			"componentType":5123,
			"count":2538,
			"type":"SCALAR"
		},
		{
			"bufferView":27,
			"componentType":5126,
			"count":7,
			"type":"MAT4"
		}
	],
	"bufferViews":[
		{
			"buffer":0,
			"byteLength":504,
			"byteOffset":0,
			"target":34962
		},
		{
			"buffer":0,
			"byteLength":504,
			"byteOffset":504,
			"target":34962
		},
		{
			"buffer":0,
			"byteLength":336,
			"byteOffset":1008,
			"target":34962
		},
		{
			"buffer":0,
			"byteLength":672,
			"byteOffset":1344,
			"target":34962
		},
		{
			"buffer":0,
			"byteLength":264,
			"byteOffset":2016,
			"target":34963
		},
		{
			"buffer":0,
			"byteLength":504,
			"byteOffset":2280,
			"target":34962
		},
		{
			"buffer":0,
			"byteLength":504,
			"byteOffset":2784,
			"target":34962
		},
		{
			"buffer":0,
			"byteLength":336,
			"byteOffset":3288,
			"target":34962
		},
		{
			"buffer":0,
			"byteLength":672,
			"byteOffset":3624,
			"target":34962
		},
		{
			"buffer":0,
			"byteLength":264,
			"byteOffset":4296,
			"target":34963
		},
		{
			"buffer":0,
			"byteLength":504,
			"byteOffset":4560,
			"target":34962
		},
		{
			"buffer":0,
			"byteLength":504,
			"byteOffset":5064,
			"target":34962
		},
		{
			"buffer":0,
			"byteLength":336,
			"byteOffset":5568,
			"target":34962
		},
		{
			"buffer":0,
			"byteLength":672,
			"byteOffset":5904,
			"target":34962
		},
		{
			"buffer":0,
			"byteLength":504,
			"byteOffset":6576,
			"target":34962
		},
		{
			"buffer":0,
			"byteLength":504,
			"byteOffset":7080,
			"target":34962
		},
		{
			"buffer":0,
			"byteLength":336,
			"byteOffset":7584,
			"target":34962
		},
		{
			"buffer":0,
			"byteLength":672,
			"byteOffset":7920,
			"target":34962
		},
		{
			"buffer":0,
			"byteLength":504,
			"byteOffset":8592,
			"target":34962
		},
		{
			"buffer":0,
			"byteLength":504,
			"byteOffset":9096,
			"target":34962
		},
		{
			"buffer":0,
			"byteLength":336,
			"byteOffset":9600,
			"target":34962
		},
		{
			"buffer":0,
			"byteLength":672,
			"byteOffset":9936,
			"target":34962
		},
		{
			"buffer":0,
			"byteLength":6204,
			"byteOffset":10608,
			"target":34962
		},
		{
			"buffer":0,
			"byteLength":6204,
			"byteOffset":16812,
			"target":34962
		},
		{
			"buffer":0,
			"byteLength":4136,
			"byteOffset":23016,
			"target":34962
		},
		{
			"buffer":0,
			"byteLength":8272,
			"byteOffset":27152,
			"target":34962
		},
		{
			"buffer":0,
			"byteLength":5076,
			"byteOffset":35424,
			"target":34963
		},
		{
			"buffer":0,
			"byteLength":448,
			"byteOffset":40500
		}
	],
	"buffers":[
		{
			"byteLength":40948,
			"uri":"Character-f7f2e1492e8d443f1eaef27609978713.bin"
		}
	]
}
