{
	"asset":{
		"generator":"Khronos glTF Blender I/O v5.1.20",
		"version":"2.0"
	},
	"scene":0,
	"scenes":[
		{
			"extras":{
				"rbx_anim_settings":{}
			},
			"name":"Scene",
			"nodes":[
				0,
				1,
				2,
				3
			]
		}
	],
	"nodes":[
		{
			"camera":0,
			"name":"Camera",
			"rotation":[
				-0.7071068286895752,
				0,
				0,
				0.7071068286895752
			],
			"translation":[
				0,
				10,
				0
			]
		},
		{
			"name":"Character",
			"translation":[
				2,
				0,
				0
			]
		},
		{
			"mesh":0,
			"name":"Model",
			"scale":[
				1.273688793182373,
				1.273688793182373,
				1.273688793182373
			]
		},
		{
			"name":"Drawn LineArt"
		}
	],
	"cameras":[
		{
			"name":"Camera",
			"perspective":{
				"aspectRatio":1,
				"yfov":0.6911112070083618,
				"zfar":100,
				"znear":0.10000000149011612
			},
			"type":"perspective"
		}
	],
	"animations":[
		{
			"channels":[
				{
					"sampler":0,
					"target":{
						"node":2,
						"path":"translation"
					}
				},
				{
					"sampler":1,
					"target":{
						"node":2,
						"path":"rotation"
					}
				},
				{
					"sampler":2,
					"target":{
						"node":2,
						"path":"scale"
					}
				}
			],
			"name":"OuterAction",
			"samplers":[
				{
					"input":10,
					"interpolation":"LINEAR",
					"output":11
				},
				{
					"input":10,
					"interpolation":"LINEAR",
					"output":12
				},
				{
					"input":10,
					"interpolation":"LINEAR",
					"output":13
				}
			]
		}
	],
	"materials":[
		{
			"doubleSided":true,
			"emissiveFactor":[
				1,
				1,
				1
			],
			"name":"Material",
			"pbrMetallicRoughness":{
				"baseColorFactor":[
					0,
					0,
					0,
					1
				]
			}
		},
		{
			"name":"Outline"
		}
	],
	"meshes":[
		{
			"name":"Icosphere.002",
			"primitives":[
				{
					"attributes":{
						"POSITION":0,
						"NORMAL":1,
						"TEXCOORD_0":2,
						"TANGENT":3
					},
					"indices":4,
					"material":0
				},
				{
					"attributes":{
						"POSITION":5,
						"NORMAL":6,
						"TEXCOORD_0":7,
						"TANGENT":8
					},
					"indices":9,
					"material":1
				}
			]
		}
	],
	"accessors":[
		{
			"bufferView":0,
			"componentType":5126,
			"count":1859,
			"max":[
				0.27585601806640625,
				0.23698382079601288,
				0.27523162961006165
			],
			"min":[
				-0.27809393405914307,
				-0.1880510151386261,
				-0.27523162961006165
			],
			"type":"VEC3"
		},
		{
			"bufferView":1,
			"componentType":5126,
			"count":1859,
			"type":"VEC3"
		},
		{
			"bufferView":2,
			"componentType":5126,
			"count":1859,
			"type":"VEC2"
		},
		{
			"bufferView":3,
			"componentType":5126,
			"count":1859,
			"type":"VEC4"
		},
		{
			"bufferView":4,
			"componentType":5123,
			"count":5760,
			"type":"SCALAR"
		},
		{
			"bufferView":5,
			"componentType":5126,
			"count":1861,
			"max":[
				0.2783683240413666,
				0.2394939363002777,
				0.27773934602737427
			],
			"min":[
				-0.28060728311538696,
				-0.19055119156837463,
				-0.27773934602737427
			],
			"type":"VEC3"
		},
		{
			"bufferView":6,
			"componentType":5126,
			"count":1861,
			"type":"VEC3"
		},
		{
			"bufferView":7,
			"componentType":5126,
			"count":1861,
			"type":"VEC2"
		},
		{
			"bufferView":8,
			"componentType":5126,
			"count":1861,
			"type":"VEC4"
		},
		{
			"bufferView":9,
			"componentType":5123,
			"count":5760,
			"type":"SCALAR"
		},
		{
			"bufferView":10,
			"componentType":5126,
			"count":1,
			"max":[
				3.15
			],
			"min":[
				3.15
			],
			"type":"SCALAR"
		},
		{
			"bufferView":11,
			"componentType":5126,
			"count":1,
			"type":"VEC3"
		},
		{
			"bufferView":12,
			"componentType":5126,
			"count":1,
			"type":"VEC4"
		},
		{
			"bufferView":13,
			"componentType":5126,
			"count":1,
			"type":"VEC3"
		}
	],
	"bufferViews":[
		{
			"buffer":0,
			"byteLength":22308,
			"byteOffset":0,
			"target":34962
		},
		{
			"buffer":0,
			"byteLength":22308,
			"byteOffset":22308,
			"target":34962
		},
		{
			"buffer":0,
			"byteLength":14872,
			"byteOffset":44616,
			"target":34962
		},
		{
			"buffer":0,
			"byteLength":29744,
			"byteOffset":59488,
			"target":34962
		},
		{
			"buffer":0,
			"byteLength":11520,
			"byteOffset":89232,
			"target":34963
		},
		{
			"buffer":0,
			"byteLength":22332,
			"byteOffset":100752,
			"target":34962
		},
		{
			"buffer":0,
			"byteLength":22332,
			"byteOffset":123084,
			"target":34962
		},
		{
			"buffer":0,
			"byteLength":14888,
			"byteOffset":145416,
			"target":34962
		},
		{
			"buffer":0,
			"byteLength":29776,
			"byteOffset":160304,
			"target":34962
		},
		{
			"buffer":0,
			"byteLength":11520,
			"byteOffset":190080,
			"target":34963
		},
		{
			"buffer":0,
			"byteLength":4,
			"byteOffset":201600
		},
		{
			"buffer":0,
			"byteLength":12,
			"byteOffset":201604
		},
		{
			"buffer":0,
			"byteLength":16,
			"byteOffset":201616
		},
		{
			"buffer":0,
			"byteLength":12,
			"byteOffset":201632
		}
	],
	"buffers":[
		{
			"byteLength":201644,
			"uri":"Slime-c872cb73827a3b395b571c2fd33cef0f.bin"
		}
	]
}
