{
	"asset":{
		"generator":"Khronos glTF Blender I/O v5.1.20",
		"version":"2.0"
	},
	"extensionsUsed":[
		"KHR_materials_specular"
	],
	"scene":0,
	"scenes":[
		{
			"extras":{
				"rbx_anim_settings":{}
			},
			"name":"Scene",
			"nodes":[
				0,
				1,
				2,
				3,
				4,
				5,
				6,
				7,
				8
			]
		}
	],
	"nodes":[
		{
			"camera":0,
			"name":"Camera",
			"rotation":[
				-0.7071068286895752,
				0,
				0,
				0.7071068286895752
			],
			"translation":[
				0,
				3.569908618927002,
				0
			]
		},
		{
			"mesh":0,
			"name":"Right Leg",
			"rotation":[
				0.7071068286895752,
				0,
				0,
				0.7071068286895752
			],
			"translation":[
				3.625300168991089,
				0,
				0
			]
		},
		{
			"mesh":1,
			"name":"Left Leg",
			"rotation":[
				0.7071068286895752,
				0,
				0,
				0.7071068286895752
			],
			"translation":[
				3.625300168991089,
				0,
				0
			]
		},
		{
			"mesh":2,
			"name":"Right Arm",
			"rotation":[
				0.7071068286895752,
				0,
				0,
				0.7071068286895752
			],
			"translation":[
				3.625300168991089,
				0,
				0
			]
		},
		{
			"mesh":3,
			"name":"Left Arm",
			"rotation":[
				0.7071068286895752,
				0,
				0,
				0.7071068286895752
			],
			"translation":[
				3.625300168991089,
				0,
				0
			]
		},
		{
			"mesh":4,
			"name":"Torso",
			"rotation":[
				0.7071068286895752,
				0,
				0,
				0.7071068286895752
			],
			"translation":[
				3.625300168991089,
				0,
				0
			]
		},
		{
			"mesh":5,
			"name":"Head",
			"rotation":[
				0.7071068286895752,
				0,
				0,
				0.7071068286895752
			],
			"translation":[
				3.625300168991089,
				0,
				0
			]
		},
		{
			"mesh":6,
			"name":"Core",
			"scale":[
				1.0052015781402588,
				1.0052015781402588,
				1.0052015781402588
			]
		},
		{
			"mesh":7,
			"name":"Outer",
			"scale":[
				1.273688793182373,
				1.273688793182373,
				1.273688793182373
			]
		}
	],
	"cameras":[
		{
			"name":"Camera",
			"perspective":{
				"aspectRatio":1,
				"yfov":0.6911112070083618,
				"zfar":100,
				"znear":0.10000000149011612
			},
			"type":"perspective"
		}
	],
	"animations":[
		{
			"channels":[
				{
					"sampler":0,
					"target":{
						"node":8,
						"path":"translation"
					}
				},
				{
					"sampler":1,
					"target":{
						"node":8,
						"path":"rotation"
					}
				},
				{
					"sampler":2,
					"target":{
						"node":8,
						"path":"scale"
					}
				}
			],
			"name":"OuterAction",
			"samplers":[
				{
					"input":41,
					"interpolation":"LINEAR",
					"output":42
				},
				{
					"input":41,
					"interpolation":"LINEAR",
					"output":43
				},
				{
					"input":41,
					"interpolation":"LINEAR",
					"output":44
				}
			]
		}
	],
	"materials":[
		{
			"alphaMode":"BLEND",
			"doubleSided":true,
			"extensions":{
				"KHR_materials_specular":{
					"specularFactor":0.125490203499794
				}
			},
			"name":"AnimationDummy1Mtl",
			"pbrMetallicRoughness":{
				"metallicFactor":0
			}
		},
		{
			"doubleSided":true,
			"emissiveFactor":[
				1,
				1,
				1
			],
			"name":"Material",
			"pbrMetallicRoughness":{
				"baseColorFactor":[
					0,
					0,
					0,
					1
				]
			}
		},
		{
			"name":"Outline"
		}
	],
	"meshes":[
		{
			"name":"AnimationDummy1",
			"primitives":[
				{
					"attributes":{
						"POSITION":0,
						"NORMAL":1,
						"TEXCOORD_0":2,
						"TANGENT":3
					},
					"indices":4,
					"material":0
				}
			]
		},
		{
			"name":"AnimationDummy2",
			"primitives":[
				{
					"attributes":{
						"POSITION":5,
						"NORMAL":6,
						"TEXCOORD_0":7,
						"TANGENT":8
					},
					"indices":9,
					"material":0
				}
			]
		},
		{
			"name":"AnimationDummy3",
			"primitives":[
				{
					"attributes":{
						"POSITION":10,
						"NORMAL":11,
						"TEXCOORD_0":12,
						"TANGENT":13
					},
					"indices":4,
					"material":0
				}
			]
		},
		{
			"name":"AnimationDummy4",
			"primitives":[
				{
					"attributes":{
						"POSITION":14,
						"NORMAL":15,
						"TEXCOORD_0":16,
						"TANGENT":17
					},
					"indices":9,
					"material":0
				}
			]
		},
		{
			"name":"AnimationDummy5",
			"primitives":[
				{
					"attributes":{
						"POSITION":18,
						"NORMAL":19,
						"TEXCOORD_0":20,
						"TANGENT":21
					},
					"indices":9,
					"material":0
				}
			]
		},
		{
			"name":"AnimationDummy6",
			"primitives":[
				{
					"attributes":{
						"POSITION":22,
						"NORMAL":23,
						"TEXCOORD_0":24,
						"TANGENT":25
					},
					"indices":26,
					"material":0
				}
			]
		},
		{
			"name":"Icosphere.001",
			"primitives":[
				{
					"attributes":{
						"POSITION":27,
						"NORMAL":28,
						"TEXCOORD_0":29,
						"TANGENT":30
					},
					"indices":31,
					"material":1
				}
			]
		},
		{
			"name":"Icosphere.002",
			"primitives":[
				{
					"attributes":{
						"POSITION":32,
						"NORMAL":33,
						"TEXCOORD_0":34,
						"TANGENT":35
					},
					"indices":31,
					"material":1
				},
				{
					"attributes":{
						"POSITION":36,
						"NORMAL":37,
						"TEXCOORD_0":38,
						"TANGENT":39
					},
					"indices":40,
					"material":2
				}
			]
		}
	],
	"accessors":[
		{
			"bufferView":0,
			"componentType":5126,
			"count":42,
			"max":[
				1,
				0.5,
				4.768369876728684e-07
			],
			"min":[
				0,
				-0.5,
				-2
			],
			"type":"VEC3"
		},
		{
			"bufferView":1,
			"componentType":5126,
			"count":42,
			"type":"VEC3"
		},
		{
			"bufferView":2,
			"componentType":5126,
			"count":42,
			"type":"VEC2"
		},
		{
			"bufferView":3,
			"componentType":5126,
			"count":42,
			"type":"VEC4"
		},
		{
			"bufferView":4,
			"componentType":5123,
			"count":132,
			"type":"SCALAR"
		},
		{
			"bufferView":5,
			"componentType":5126,
			"count":42,
			"max":[
				0,
				0.5,
				4.768369876728684e-07
			],
			"min":[
				-1,
				-0.5,
				-2
			],
			"type":"VEC3"
		},
		{
			"bufferView":6,
			"componentType":5126,
			"count":42,
			"type":"VEC3"
		},
		{
			"bufferView":7,
			"componentType":5126,
			"count":42,
			"type":"VEC2"
		},
		{
			"bufferView":8,
			"componentType":5126,
			"count":42,
			"type":"VEC4"
		},
		{
			"bufferView":9,
			"componentType":5123,
			"count":132,
			"type":"SCALAR"
		},
		{
			"bufferView":10,
			"componentType":5126,
			"count":42,
			"max":[
				2,
				0.5,
				-2
			],
			"min":[
				1,
				-0.5,
				-4
			],
			"type":"VEC3"
		},
		{
			"bufferView":11,
			"componentType":5126,
			"count":42,
			"type":"VEC3"
		},
		{
			"bufferView":12,
			"componentType":5126,
			"count":42,
			"type":"VEC2"
		},
		{
			"bufferView":13,
			"componentType":5126,
			"count":42,
			"type":"VEC4"
		},
		{
			"bufferView":14,
			"componentType":5126,
			"count":42,
			"max":[
				-1,
				0.5,
				-2
			],
			"min":[
				-2,
				-0.5,
				-4
			],
			"type":"VEC3"
		},
		{
			"bufferView":15,
			"componentType":5126,
			"count":42,
			"type":"VEC3"
		},
		{
			"bufferView":16,
			"componentType":5126,
			"count":42,
			"type":"VEC2"
		},
		{
			"bufferView":17,
			"componentType":5126,
			"count":42,
			"type":"VEC4"
		},
		{
			"bufferView":18,
			"componentType":5126,
			"count":42,
			"max":[
				1,
				0.5,
				-2
			],
			"min":[
				-1,
				-0.5,
				-4
			],
			"type":"VEC3"
		},
		{
			"bufferView":19,
			"componentType":5126,
			"count":42,
			"type":"VEC3"
		},
		{
			"bufferView":20,
			"componentType":5126,
			"count":42,
			"type":"VEC2"
		},
		{
			"bufferView":21,
			"componentType":5126,
			"count":42,
			"type":"VEC4"
		},
		{
			"bufferView":22,
			"componentType":5126,
			"count":517,
			"max":[
				0.5989840030670166,
				0.5989840030670166,
				-3.8987300395965576
			],
			"min":[
				-0.5989840030670166,
				-0.5989840030670166,
				-5.1012701988220215
			],
			"type":"VEC3"
		},
		{
			"bufferView":23,
			"componentType":5126,
			"count":517,
			"type":"VEC3"
		},
		{
			"bufferView":24,
			"componentType":5126,
			"count":517,
			"type":"VEC2"
		},
		{
			"bufferView":25,
			"componentType":5126,
			"count":517,
			"type":"VEC4"
		},
		{
			"bufferView":26,
			"componentType":5123,
			"count":2538,
			"type":"SCALAR"
		},
		{
			"bufferView":27,
			"componentType":5126,
			"count":1870,
			"max":[
				1.082902193069458,
				0.9303051233291626,
				1.0804508924484253
			],
			"min":[
				-1.0916872024536133,
				-0.7382141947746277,
				-1.0804507732391357
			],
			"type":"VEC3"
		},
		{
			"bufferView":28,
			"componentType":5126,
			"count":1870,
			"type":"VEC3"
		},
		{
			"bufferView":29,
			"componentType":5126,
			"count":1870,
			"type":"VEC2"
		},
		{
			"bufferView":30,
			"componentType":5126,
			"count":1870,
			"type":"VEC4"
		},
		{
			"bufferView":31,
			"componentType":5123,
			"count":5760,
			"type":"SCALAR"
		},
		{
			"bufferView":32,
			"componentType":5126,
			"count":1870,
			"max":[
				1.082902193069458,
				0.9303051233291626,
				1.0804508924484253
			],
			"min":[
				-1.0916872024536133,
				-0.7382141947746277,
				-1.0804507732391357
			],
			"type":"VEC3"
		},
		{
			"bufferView":33,
			"componentType":5126,
			"count":1870,
			"type":"VEC3"
		},
		{
			"bufferView":34,
			"componentType":5126,
			"count":1870,
			"type":"VEC2"
		},
		{
			"bufferView":35,
			"componentType":5126,
			"count":1870,
			"type":"VEC4"
		},
		{
			"bufferView":36,
			"componentType":5126,
			"count":1869,
			"max":[
				1.0928977727890015,
				0.9403051137924194,
				1.0904202461242676
			],
			"min":[
				-1.1016778945922852,
				-0.7482141852378845,
				-1.090420126914978
			],
			"type":"VEC3"
		},
		{
			"bufferView":37,
			"componentType":5126,
			"count":1869,
			"type":"VEC3"
		},
		{
			"bufferView":38,
			"componentType":5126,
			"count":1869,
			"type":"VEC2"
		},
		{
			"bufferView":39,
			"componentType":5126,
			"count":1869,
			"type":"VEC4"
		},
		{
			"bufferView":40,
			"componentType":5123,
			"count":5760,
			"type":"SCALAR"
		},
		{
			"bufferView":41,
			"componentType":5126,
			"count":1,
			"max":[
				3.15
			],
			"min":[
				3.15
			],
			"type":"SCALAR"
		},
		{
			"bufferView":42,
			"componentType":5126,
			"count":1,
			"type":"VEC3"
		},
		{
			"bufferView":43,
			"componentType":5126,
			"count":1,
			"type":"VEC4"
		},
		{
			"bufferView":44,
			"componentType":5126,
			"count":1,
			"type":"VEC3"
		}
	],
	"bufferViews":[
		{
			"buffer":0,
			"byteLength":504,
			"byteOffset":0,
			"target":34962
		},
		{
			"buffer":0,
			"byteLength":504,
			"byteOffset":504,
			"target":34962
		},
		{
			"buffer":0,
			"byteLength":336,
			"byteOffset":1008,
			"target":34962
		},
		{
			"buffer":0,
			"byteLength":672,
			"byteOffset":1344,
			"target":34962
		},
		{
			"buffer":0,
			"byteLength":264,
			"byteOffset":2016,
			"target":34963
		},
		{
			"buffer":0,
			"byteLength":504,
			"byteOffset":2280,
			"target":34962
		},
		{
			"buffer":0,
			"byteLength":504,
			"byteOffset":2784,
			"target":34962
		},
		{
			"buffer":0,
			"byteLength":336,
			"byteOffset":3288,
			"target":34962
		},
		{
			"buffer":0,
			"byteLength":672,
			"byteOffset":3624,
			"target":34962
		},
		{
			"buffer":0,
			"byteLength":264,
			"byteOffset":4296,
			"target":34963
		},
		{
			"buffer":0,
			"byteLength":504,
			"byteOffset":4560,
			"target":34962
		},
		{
			"buffer":0,
			"byteLength":504,
			"byteOffset":5064,
			"target":34962
		},
		{
			"buffer":0,
			"byteLength":336,
			"byteOffset":5568,
			"target":34962
		},
		{
			"buffer":0,
			"byteLength":672,
			"byteOffset":5904,
			"target":34962
		},
		{
			"buffer":0,
			"byteLength":504,
			"byteOffset":6576,
			"target":34962
		},
		{
			"buffer":0,
			"byteLength":504,
			"byteOffset":7080,
			"target":34962
		},
		{
			"buffer":0,
			"byteLength":336,
			"byteOffset":7584,
			"target":34962
		},
		{
			"buffer":0,
			"byteLength":672,
			"byteOffset":7920,
			"target":34962
		},
		{
			"buffer":0,
			"byteLength":504,
			"byteOffset":8592,
			"target":34962
		},
		{
			"buffer":0,
			"byteLength":504,
			"byteOffset":9096,
			"target":34962
		},
		{
			"buffer":0,
			"byteLength":336,
			"byteOffset":9600,
			"target":34962
		},
		{
			"buffer":0,
			"byteLength":672,
			"byteOffset":9936,
			"target":34962
		},
		{
			"buffer":0,
			"byteLength":6204,
			"byteOffset":10608,
			"target":34962
		},
		{
			"buffer":0,
			"byteLength":6204,
			"byteOffset":16812,
			"target":34962
		},
		{
			"buffer":0,
			"byteLength":4136,
			"byteOffset":23016,
			"target":34962
		},
		{
			"buffer":0,
			"byteLength":8272,
			"byteOffset":27152,
			"target":34962
		},
		{
			"buffer":0,
			"byteLength":5076,
			"byteOffset":35424,
			"target":34963
		},
		{
			"buffer":0,
			"byteLength":22440,
			"byteOffset":40500,
			"target":34962
		},
		{
			"buffer":0,
			"byteLength":22440,
			"byteOffset":62940,
			"target":34962
		},
		{
			"buffer":0,
			"byteLength":14960,
			"byteOffset":85380,
			"target":34962
		},
		{
			"buffer":0,
			"byteLength":29920,
			"byteOffset":100340,
			"target":34962
		},
		{
			"buffer":0,
			"byteLength":11520,
			"byteOffset":130260,
			"target":34963
		},
		{
			"buffer":0,
			"byteLength":22440,
			"byteOffset":141780,
			"target":34962
		},
		{
			"buffer":0,
			"byteLength":22440,
			"byteOffset":164220,
			"target":34962
		},
		{
			"buffer":0,
			"byteLength":14960,
			"byteOffset":186660,
			"target":34962
		},
		{
			"buffer":0,
			"byteLength":29920,
			"byteOffset":201620,
			"target":34962
		},
		{
			"buffer":0,
			"byteLength":22428,
			"byteOffset":231540,
			"target":34962
		},
		{
			"buffer":0,
			"byteLength":22428,
			"byteOffset":253968,
			"target":34962
		},
		{
			"buffer":0,
			"byteLength":14952,
			"byteOffset":276396,
			"target":34962
		},
		{
			"buffer":0,
			"byteLength":29904,
			"byteOffset":291348,
			"target":34962
		},
		{
			"buffer":0,
			"byteLength":11520,
			"byteOffset":321252,
			"target":34963
		},
		{
			"buffer":0,
			"byteLength":4,
			"byteOffset":332772
		},
		{
			"buffer":0,
			"byteLength":12,
			"byteOffset":332776
		},
		{
			"buffer":0,
			"byteLength":16,
			"byteOffset":332788
		},
		{
			"buffer":0,
			"byteLength":12,
			"byteOffset":332804
		}
	],
	"buffers":[
		{
			"byteLength":332816,
			"uri":"Slime-071cf7aa8b7f525b5767f221296fe70a.bin"
		}
	]
}
